<svg width="34" height="34" viewBox="0 0 34 34" fill="none" xmlns="http://www.w3.org/2000/svg">
<path d="M29.6 0H4C1.792 0 0 1.792 0 4V29.6C0 31.808 1.792 33.6 4 33.6H29.6C31.808 33.6 33.6 31.808 33.6 29.6V4C33.6 1.792 31.808 0 29.6 0ZM10.4 12.8V28H5.6V12.8H10.4ZM5.6 8.376C5.6 7.256 6.56 6.4 8 6.4C9.44 6.4 10.344 7.256 10.4 8.376C10.4 9.496 9.504 10.4 8 10.4C6.56 10.4 5.6 9.496 5.6 8.376ZM28 28H23.2C23.2 28 23.2 20.592 23.2 20C23.2 18.4 22.4 16.8 20.4 16.768H20.336C18.4 16.768 17.6 18.416 17.6 20C17.6 20.728 17.6 28 17.6 28H12.8V12.8H17.6V14.848C17.6 14.848 19.144 12.8 22.248 12.8C25.424 12.8 28 14.984 28 19.408V28Z" fill="white"/>
</svg>
