<svg width="37" height="38" viewBox="0 0 37 38" fill="none" xmlns="http://www.w3.org/2000/svg">
<path d="M11.2667 35.6H25.6667C30.9683 35.6 35.2667 31.3016 35.2667 26V11.6C35.2667 6.2984 30.9683 2 25.6667 2H11.2667C5.96515 2 1.66675 6.2984 1.66675 11.6V26C1.66675 31.3016 5.96515 35.6 11.2667 35.6Z" stroke="white" stroke-width="3" stroke-miterlimit="10"/>
<path d="M18.4668 26.7998C22.8851 26.7998 26.4668 23.2181 26.4668 18.7998C26.4668 14.3815 22.8851 10.7998 18.4668 10.7998C14.0485 10.7998 10.4668 14.3815 10.4668 18.7998C10.4668 23.2181 14.0485 26.7998 18.4668 26.7998Z" stroke="white" stroke-width="3" stroke-miterlimit="10"/>
<path d="M28.0668 10.7996C28.9505 10.7996 29.6668 10.0833 29.6668 9.19961C29.6668 8.31595 28.9505 7.59961 28.0668 7.59961C27.1831 7.59961 26.4668 8.31595 26.4668 9.19961C26.4668 10.0833 27.1831 10.7996 28.0668 10.7996Z" fill="white"/>
</svg>
